{"title":"Kruimeltje-AC3-XviD-DVDRip[Ned]1999 2 Lions-Team","uid":5639440,"size":1464466990,"categoryP":"video","categoryS":"movies","magnet":"?xt=urn:btih:5ecc6b97cd29d368bb1c8c4ead329e8d26c52525&amp;dn=Kruimeltje-AC3-XviD-DVDRip%5BNed%5D1999+2+Lions-Team&amp;tr=udp%3A%2F%2Ftracker.openbittorrent.com%3A80&amp;tr=udp%3A%2F%2Fopen.demonii.com%3A1337&amp;tr=udp%3A%2F%2Ftracker.coppersurfer.tk%3A6969&amp;tr=udp%3A%2F%2Fexodus.desync.com%3A6969","seeders":5,"leechers":0,"uploader":"FatFreddy31","files":-1,"time":1277035171,"description":"Nederland\nFamilie / Drama\n119 minuten\n\ngeregisseerd door Maria Peters\nmet Ruud Feltkamp, Hugo Haenen en Eric van der Donk\n\nRotterdam, een winter in de jaren '20. Kruimeltje werd als kind te vondeling gelegd. Nu is hij tien jaar. Hij moet grotendeels voor zichzelf zorgen, want met zijn pleegmoeder kan hij niet goed opschieten. Zij laat hem trouwens alleen binnen als hij geld meebrengt. Kruimeltje is dus een klein boefje geworden. Bij de politie is hij inmiddels vaste klant. Maar Kruimeltje blijft hopen dat ooit op een dag zijn vader zal terugkomen om voor hem te zorgen.\n &lt;a href=&quot;\nhttp://www.imdb.com/title/tt0205190/&quot; rel=&quot;nofollow&quot; target=&quot;_NEW&quot;&gt;\nhttp://www.imdb.com/title/tt0205190/&lt;/a&gt;\n &lt;a href=&quot;\nhttp://www.moviemeter.nl/film/55&quot; rel=&quot;nofollow&quot; target=&quot;_NEW&quot;&gt;\nhttp://www.moviemeter.nl/film/55&lt;/a&gt;\n\nNederlands gesproken.\n\nHoesjes bijgevoegd.\n\nGeneral\nComplete name                    : Kruimeltje-AC3-XviD-DVDRip[Ned]1999 2 Lions-TeamKruimeltje-AC3-XviD-DVDRip[Ned]1999.avi\nFormat                           : AVI\nFormat/Info                      : Audio Video Interleave\nFile size                        : 1.36 GiB\nDuration                         : 1h 54mn\nOverall bit rate                 : 1 698 Kbps\nWriting application              : VirtualDubMod 1.5.4.1 (build 2178/release)\nWriting library                  : VirtualDubMod build 2178/release\n\nVideo\nID                               : 0\nFormat                           : MPEG-4 Visual\nFormat profile                   : Simple@L3\nFormat settings, BVOP            : No\nFormat settings, QPel            : No\nFormat settings, GMC             : No warppoints\nFormat settings, Matrix          : Default (H.263)\nCodec ID                         : XVID\nCodec ID/Hint                    : XviD\nDuration                         : 1h 54mn\nBit rate                         : 1 464 Kbps\nWidth                            : 720 pixels\nHeight                           : 400 pixels\nDisplay aspect ratio             : 16:9\nFrame rate                       : 25.000 fps\nResolution                       : 8 bits\nColorimetry                      : 4:2:0\nScan type                        : Progressive\nBits/(Pixel*Frame)               : 0.203\nStream size                      : 1.17 GiB (86%)\nWriting library                  : XviD 1.1.2 (UTC 2006-11-01)\n\nAudio\nID                               : 1\nFormat                           : AC-3\nFormat/Info                      : Audio Coding 3\nFormat profile                   : Dolby Digital\nFormat_Settings_ModeExtension    : CM (complete main)\nCodec ID                         : 2000\nDuration                         : 1h 54mn\nBit rate mode                    : Constant\nBit rate                         : 224 Kbps\nChannel(s)                       : 2 channels\nChannel positions                : Front: L R\nSampling rate                    : 48.0 KHz\nStream size                      : 184 MiB (13%)\nAlignment                        : Split accross interleaves\nInterleave, duration             : 40 ms (1.00 video frame)\nInterleave, preload duration     : 500 ms\n\n\nBrought to you by \n2Lions Team\n\nmeer zien??\nKom dan eens kijken op ons forum \n                    &lt;a href=&quot;\nhttp://www.2lions.ons-forum.nl&quot; rel=&quot;nofollow&quot; target=&quot;_NEW&quot;&gt;\nhttp://www.2lions.ons-forum.nl&lt;/a&gt;\n\n2Lions the site to be for all your Dutch MOVIES and more\n\n******************************************\n\nDON T HIT AND RUN Niet gelijk afhaken als de FILM binnen is blijf seeden. \n\nDon`t quit after you finished the download, but keep seeding\n\nThere are fake torrents from uploaders who use our team name.\nThose are not ours, or members from our team.\nWe 2Lions-Team are not responsible for the fake posts on our name\n\nWij 2Lions-Team zijn niet verantwoordelijk voor die zieke FAKE posten die op onze naam worden gedaan\n\nPlease check our site !!!\n\nto the fakers , get a life !!!","torrent":{"xt":"urn:btih:5ecc6b97cd29d368bb1c8c4ead329e8d26c52525","amp;dn":"Kruimeltje-AC3-XviD-DVDRip%5BNed%5D1999+2+Lions-Team","amp;tr":["udp%3A%2F%2Ftracker.openbittorrent.com%3A80","udp%3A%2F%2Fopen.demonii.com%3A1337","udp%3A%2F%2Ftracker.coppersurfer.tk%3A6969","udp%3A%2F%2Fexodus.desync.com%3A6969"],"infoHash":"5ecc6b97cd29d368bb1c8c4ead329e8d26c52525","infoHashBuffer":{"type":"Buffer","data":[94,204,107,151,205,41,211,104,187,28,140,78,173,50,158,141,38,197,37,37]},"announce":[],"urlList":[]}}